<svg width="24" height="25" viewBox="0 0 24 25" fill="none" xmlns="http://www.w3.org/2000/svg">
<path d="M19.0002 11C19.0002 12.6811 18.5017 14.3245 17.5677 15.7223C16.6337 17.1202 15.3062 18.2096 13.7531 18.853C12.1999 19.4963 10.4908 19.6647 8.84198 19.3367C7.19314 19.0087 5.67859 18.1992 4.48984 17.0104C3.30109 15.8217 2.49155 14.3071 2.16357 12.6583C1.8356 11.0094 2.00393 9.30036 2.64727 7.74719C3.29062 6.19402 4.38008 4.8665 5.7779 3.93251C7.17572 2.99852 8.81911 2.5 10.5002 2.5C12.7546 2.5 14.9166 3.39553 16.5107 4.98959C18.1047 6.58365 19.0002 8.74566 19.0002 11Z" stroke="white" stroke-width="2" stroke-linecap="round" stroke-linejoin="round"/>
<path d="M16.511 17.011L22 22.5" stroke="white" stroke-width="2" stroke-linecap="round" stroke-linejoin="round"/>
</svg>
