<svg width="24" height="24" viewBox="0 0 24 24" fill="none" xmlns="http://www.w3.org/2000/svg">
<path d="M16.792 3.904C18.1065 3.97667 19.3389 4.5659 20.2208 5.5433C21.1027 6.5207 21.5625 7.80704 21.5 9.122C21.5 12.194 18.848 14.081 16.303 16.344C13.791 18.587 12.438 19.813 12 20.096C11.523 19.787 9.85704 18.273 7.69704 16.344C5.14104 14.072 2.50004 12.167 2.50004 9.122C2.43761 7.80704 2.89743 6.5207 3.7793 5.5433C4.66117 4.5659 5.89361 3.97667 7.20804 3.904C7.93619 3.88193 8.6576 4.04918 9.30176 4.3894C9.94591 4.72962 10.4908 5.23116 10.883 5.845C11.723 7.02 11.863 7.608 12.003 7.608C12.143 7.608 12.281 7.02 13.113 5.842C13.5031 5.22532 14.0482 4.72179 14.6937 4.38171C15.3393 4.04163 16.0629 3.87691 16.792 3.904ZM16.792 1.904C15.884 1.87493 14.981 2.05108 14.1505 2.41935C13.3199 2.78762 12.5832 3.33851 11.995 4.031C11.4074 3.34053 10.6722 2.79091 9.84359 2.42275C9.01502 2.0546 8.11433 1.87731 7.20804 1.904C5.36291 1.97615 3.62142 2.77598 2.36438 4.12859C1.10734 5.4812 0.437038 7.27653 0.500043 9.122C0.500043 12.732 3.05004 14.949 5.51504 17.092C5.79804 17.338 6.08404 17.586 6.36804 17.839L7.39504 18.757C8.51508 19.8228 9.68931 20.8301 10.913 21.775C11.2368 21.9846 11.6143 22.0962 12 22.0962C12.3858 22.0962 12.7633 21.9846 13.087 21.775C14.3497 20.8013 15.5601 19.7615 16.713 18.66L17.635 17.836C17.928 17.576 18.225 17.317 18.52 17.062C20.854 15.037 23.5 12.742 23.5 9.122C23.563 7.27653 22.8927 5.4812 21.6357 4.12859C20.3787 2.77598 18.6372 1.97615 16.792 1.904Z" fill="white"/>
</svg>
