<svg width="24" height="25" viewBox="0 0 24 25" fill="none" xmlns="http://www.w3.org/2000/svg">
<path d="M2 12.501V15.95C2 18.799 2.698 19.956 3.606 20.895C4.546 21.803 5.704 22.502 8.552 22.502H15.448C18.296 22.502 19.454 21.803 20.394 20.895C21.302 19.956 22 18.799 22 15.95V9.052C22 6.204 21.302 5.046 20.394 4.107C19.454 3.199 18.296 2.5 15.448 2.5H8.552C5.704 2.5 4.546 3.199 3.606 4.107C2.698 5.046 2 6.204 2 9.052V12.501Z" stroke="white" stroke-width="2" stroke-linecap="round" stroke-linejoin="round"/>
<path d="M2.04883 7.50201H21.9498" stroke="white" stroke-width="2" stroke-linejoin="round"/>
<path d="M13.5039 2.50098L16.3619 7.50198" stroke="white" stroke-width="2" stroke-linecap="round" stroke-linejoin="round"/>
<path d="M7.20703 2.60999L10.002 7.50199" stroke="white" stroke-width="2" stroke-linecap="round" stroke-linejoin="round"/>
<path fill-rule="evenodd" clip-rule="evenodd" d="M9.76259 18.164C9.62447 18.0843 9.50978 17.9696 9.43008 17.8314C9.35038 17.6933 9.30848 17.5365 9.30859 17.377V12.13C9.30841 11.9703 9.3503 11.8134 9.43005 11.675C9.5098 11.5367 9.6246 11.4218 9.76288 11.3419C9.90116 11.262 10.0581 11.2199 10.2178 11.22C10.3775 11.22 10.5343 11.2621 10.6726 11.342L15.2176 13.966C15.3559 14.0458 15.4708 14.1606 15.5507 14.2988C15.6305 14.437 15.6726 14.5939 15.6726 14.7535C15.6726 14.9132 15.6305 15.07 15.5507 15.2083C15.4708 15.3465 15.3559 15.4613 15.2176 15.541L10.6726 18.165C10.5343 18.2449 10.3773 18.287 10.2176 18.287C10.0579 18.287 9.90093 18.2449 9.76259 18.165V18.164Z" fill="white"/>
</svg>
