<svg width="24" height="25" viewBox="0 0 24 25" fill="none" xmlns="http://www.w3.org/2000/svg">
<path fill-rule="evenodd" clip-rule="evenodd" d="M18.5 8.5H6.5C5.94772 8.5 5.5 8.94772 5.5 9.5L5 17.5C5 19.1569 6.34315 20.5 8 20.5H17C18.6569 20.5 20 19.1569 20 17.5L19.5 9.5C19.5 8.94772 19.0523 8.5 18.5 8.5ZM6.5 6.5C4.84315 6.5 3.5 7.84315 3.5 9.5L3 17.5C3 20.2614 5.23858 22.5 8 22.5H17C19.7614 22.5 22 20.2614 22 17.5L21.5 9.5C21.5 7.84315 20.1569 6.5 18.5 6.5H6.5Z" fill="white"/>
<path d="M15.8964 10.1547C16.4323 10.0213 16.987 10.3502 16.9989 10.9023C17.0065 11.2505 16.9736 11.5995 16.9003 11.9422C16.7568 12.6122 16.4622 13.2407 16.0389 13.7796C15.6156 14.3185 15.0749 14.7536 14.4579 15.0518C13.8409 15.3499 13.1639 15.5032 12.4787 15.4999C11.7934 15.4967 11.118 15.337 10.5038 15.033C9.88968 14.729 9.35306 14.2888 8.93491 13.7459C8.51676 13.203 8.22812 12.5718 8.09101 11.9004C8.02087 11.557 7.99133 11.2077 8.00219 10.8597C8.01941 10.3077 8.57713 9.98406 9.11178 10.1225L9.20946 10.1478C9.74411 10.2863 10.043 10.8454 10.1329 11.3903C10.1378 11.4203 10.1433 11.4502 10.1494 11.48C10.2225 11.838 10.3764 12.1745 10.5993 12.4639C10.8223 12.7534 11.1084 12.9881 11.4358 13.1501C11.7632 13.3122 12.1233 13.3973 12.4886 13.3991C12.854 13.4008 13.2149 13.3191 13.5438 13.1601C13.8727 13.0012 14.161 12.7692 14.3867 12.4819C14.6124 12.1946 14.7694 11.8595 14.8459 11.5023C14.8523 11.4725 14.8581 11.4427 14.8633 11.4127C14.9583 10.8687 15.2625 10.3124 15.7985 10.179L15.8964 10.1547Z" fill="white"/>
<path d="M15.817 8.11692C16.3404 8.29316 16.9198 8.01017 16.9763 7.46079C17.0143 7.0916 17.0067 6.71786 16.9525 6.34811C16.8499 5.64705 16.5832 4.98014 16.174 4.40165C15.7649 3.82317 15.225 3.34947 14.5982 3.0191C13.9714 2.68874 13.2755 2.51105 12.567 2.5005C11.8585 2.48995 11.1576 2.64684 10.5213 2.9584C9.8849 3.26995 9.3311 3.72737 8.90495 4.29342C8.47879 4.85946 8.19232 5.51814 8.06885 6.21583C8.00373 6.58381 7.98492 6.95715 8.01192 7.3273C8.05209 7.87813 8.62279 8.17825 9.15122 8.01767L9.24776 7.98833C9.77618 7.82774 10.0516 7.2567 10.1187 6.7085C10.1239 6.66621 10.1302 6.62401 10.1376 6.58193C10.2034 6.20997 10.3562 5.85881 10.5834 5.55703C10.8106 5.25525 11.1058 5.01139 11.4451 4.84529C11.7843 4.67919 12.158 4.59555 12.5357 4.60117C12.9134 4.60679 13.2845 4.70153 13.6186 4.87765C13.9528 5.05378 14.2406 5.30633 14.4588 5.61474C14.6769 5.92315 14.8191 6.2787 14.8738 6.65246C14.88 6.69473 14.885 6.73711 14.8889 6.77953C14.9397 7.32948 15.198 7.90847 15.7214 8.08472L15.817 8.11692Z" fill="white"/>
</svg>
